<?xml version="1.0" encoding="UTF-8" standalone="no"?><svg xmlns="http://www.w3.org/2000/svg" xmlns:xlink="http://www.w3.org/1999/xlink" contentStyleType="text/css" height="742px" preserveAspectRatio="none" style="width:1680px;height:742px;background:#FFFFFF;" version="1.1" viewBox="0 0 1680 742" width="1680px" zoomAndPan="magnify"><defs/><g><!--MD5=[09d1659d8360713162b4a6b1d0e7aac9]
cluster Management API--><g id="cluster_Management API"><path d="M1307.5,6 L1425.5,6 A3.75,3.75 0 0 1 1428,8.5 L1435,29.6094 L1576.5,29.6094 A2.5,2.5 0 0 1 1579,32.1094 L1579,471.5 A2.5,2.5 0 0 1 1576.5,474 L1307.5,474 A2.5,2.5 0 0 1 1305,471.5 L1305,8.5 A2.5,2.5 0 0 1 1307.5,6 " fill="none" style="stroke:#000000;stroke-width:1.5;"/><line style="stroke:#000000;stroke-width:1.5;" x1="1305" x2="1435" y1="29.6094" y2="29.6094"/><text fill="#000000" font-family="sans-serif" font-size="14" font-weight="bold" lengthAdjust="spacing" textLength="117" x="1309" y="22.5332">Management API</text></g><!--MD5=[80544f66a998f0c514c22f2fb7ea8d9d]
cluster Business API--><g id="cluster_Business API"><path d="M776.5,6 L868.5,6 A3.75,3.75 0 0 1 871,8.5 L878,29.6094 L1061.5,29.6094 A2.5,2.5 0 0 1 1064,32.1094 L1064,471.5 A2.5,2.5 0 0 1 1061.5,474 L776.5,474 A2.5,2.5 0 0 1 774,471.5 L774,8.5 A2.5,2.5 0 0 1 776.5,6 " fill="none" style="stroke:#000000;stroke-width:1.5;"/><line style="stroke:#000000;stroke-width:1.5;" x1="774" x2="878" y1="29.6094" y2="29.6094"/><text fill="#000000" font-family="sans-serif" font-size="14" font-weight="bold" lengthAdjust="spacing" textLength="91" x="778" y="22.5332">Business API</text></g><!--MD5=[8f38883641c1c4d0c56fbb7eea709949]
cluster Merchant's metadata--><g id="cluster_Merchant's metadata"><path d="M922.5,507 L1069.5,507 A3.75,3.75 0 0 1 1072,509.5 L1079,530.6094 L1149.5,530.6094 A2.5,2.5 0 0 1 1152,533.1094 L1152,732.5 A2.5,2.5 0 0 1 1149.5,735 L922.5,735 A2.5,2.5 0 0 1 920,732.5 L920,509.5 A2.5,2.5 0 0 1 922.5,507 " fill="none" style="stroke:#000000;stroke-width:1.5;"/><line style="stroke:#000000;stroke-width:1.5;" x1="920" x2="1079" y1="530.6094" y2="530.6094"/><text fill="#000000" font-family="sans-serif" font-size="14" font-weight="bold" lengthAdjust="spacing" textLength="146" x="924" y="523.5332">Merchant's metadata</text></g><!--MD5=[1447cef49520ca2f928eb42d06eb682a]
cluster Identity--><g id="cluster_Identity"><path d="M1317.5,507 L1370.5,507 A3.75,3.75 0 0 1 1373,509.5 L1380,530.6094 L1670.5,530.6094 A2.5,2.5 0 0 1 1673,533.1094 L1673,604.5 A2.5,2.5 0 0 1 1670.5,607 L1317.5,607 A2.5,2.5 0 0 1 1315,604.5 L1315,509.5 A2.5,2.5 0 0 1 1317.5,507 " fill="none" style="stroke:#000000;stroke-width:1.5;"/><line style="stroke:#000000;stroke-width:1.5;" x1="1315" x2="1380" y1="530.6094" y2="530.6094"/><text fill="#000000" font-family="sans-serif" font-size="14" font-weight="bold" lengthAdjust="spacing" textLength="52" x="1319" y="523.5332">Identity</text></g><!--MD5=[0d99d65ace22e45511a90a7e65fdb1f1]
cluster Shared--><g id="cluster_Shared"><path d="M8.5,6 L59.5,6 A3.75,3.75 0 0 1 62,8.5 L69,29.6094 L366.5,29.6094 A2.5,2.5 0 0 1 369,32.1094 L369,212.5 A2.5,2.5 0 0 1 366.5,215 L8.5,215 A2.5,2.5 0 0 1 6,212.5 L6,8.5 A2.5,2.5 0 0 1 8.5,6 " fill="none" style="stroke:#000000;stroke-width:1.5;"/><line style="stroke:#000000;stroke-width:1.5;" x1="6" x2="69" y1="29.6094" y2="29.6094"/><text fill="#000000" font-family="sans-serif" font-size="14" font-weight="bold" lengthAdjust="spacing" textLength="50" x="10" y="22.5332">Shared</text></g><!--MD5=[6cec3e5e68caa3a098de20211edd1db7]
cluster Reporting--><g id="cluster_Reporting"><path d="M395.5,6 L466.5,6 A3.75,3.75 0 0 1 469,8.5 L476,29.6094 L747.5,29.6094 A2.5,2.5 0 0 1 750,32.1094 L750,212.5 A2.5,2.5 0 0 1 747.5,215 L395.5,215 A2.5,2.5 0 0 1 393,212.5 L393,8.5 A2.5,2.5 0 0 1 395.5,6 " fill="none" style="stroke:#000000;stroke-width:1.5;"/><line style="stroke:#000000;stroke-width:1.5;" x1="393" x2="476" y1="29.6094" y2="29.6094"/><text fill="#000000" font-family="sans-serif" font-size="14" font-weight="bold" lengthAdjust="spacing" textLength="70" x="397" y="22.5332">Reporting</text></g><!--MD5=[3b6e72e4b877453cbcb29b8457d88fa9]
cluster Integrations--><g id="cluster_Integrations"><path d="M49.5,248 L135.5,248 A3.75,3.75 0 0 1 138,250.5 L145,271.6094 L451.5,271.6094 A2.5,2.5 0 0 1 454,274.1094 L454,604.5 A2.5,2.5 0 0 1 451.5,607 L49.5,607 A2.5,2.5 0 0 1 47,604.5 L47,250.5 A2.5,2.5 0 0 1 49.5,248 " fill="none" style="stroke:#000000;stroke-width:1.5;"/><line style="stroke:#000000;stroke-width:1.5;" x1="47" x2="145" y1="271.6094" y2="271.6094"/><text fill="#000000" font-family="sans-serif" font-size="14" font-weight="bold" lengthAdjust="spacing" textLength="85" x="51" y="264.5332">Integrations</text></g><!--MD5=[6c4618926f35a17129f667c2f980fbb6]
entity Merchants.Api--><g id="elem_Merchants.Api"><rect fill="#F1F1F1" height="47.6094" rx="2.5" ry="2.5" style="stroke:#181818;stroke-width:0.5;" width="130" x="1386" y="284"/><rect fill="#F1F1F1" height="10" style="stroke:#181818;stroke-width:0.5;" width="15" x="1496" y="289"/><rect fill="#F1F1F1" height="2" style="stroke:#181818;stroke-width:0.5;" width="4" x="1494" y="291"/><rect fill="#F1F1F1" height="2" style="stroke:#181818;stroke-width:0.5;" width="4" x="1494" y="295"/><text fill="#000000" font-family="sans-serif" font-size="14" lengthAdjust="spacing" textLength="90" x="1401" y="318.5332">Merchants.Api</text></g><!--MD5=[6d577814c7e7baaf01dfb89b260ef571]
entity Merchants.Api.Client--><g id="elem_Merchants.Api.Client"><rect fill="#F1F1F1" height="47.6094" rx="2.5" ry="2.5" style="stroke:#181818;stroke-width:0.5;" width="170" x="1321" y="410"/><rect fill="#F1F1F1" height="10" style="stroke:#181818;stroke-width:0.5;" width="15" x="1471" y="415"/><rect fill="#F1F1F1" height="2" style="stroke:#181818;stroke-width:0.5;" width="4" x="1469" y="417"/><rect fill="#F1F1F1" height="2" style="stroke:#181818;stroke-width:0.5;" width="4" x="1469" y="421"/><text fill="#000000" font-family="sans-serif" font-size="14" lengthAdjust="spacing" textLength="130" x="1336" y="444.5332">Merchants.Api.Client</text></g><!--MD5=[5395871682f0099db892337cb8cae345]
entity Merchants.Shared--><g id="elem_Merchants.Shared"><rect fill="#F1F1F1" height="47.6094" rx="2.5" ry="2.5" style="stroke:#181818;stroke-width:0.5;" width="156" x="1321" y="42"/><rect fill="#F1F1F1" height="10" style="stroke:#181818;stroke-width:0.5;" width="15" x="1457" y="47"/><rect fill="#F1F1F1" height="2" style="stroke:#181818;stroke-width:0.5;" width="4" x="1455" y="49"/><rect fill="#F1F1F1" height="2" style="stroke:#181818;stroke-width:0.5;" width="4" x="1455" y="53"/><text fill="#000000" font-family="sans-serif" font-size="14" lengthAdjust="spacing" textLength="116" x="1336" y="76.5332">Merchants.Shared</text></g><!--MD5=[b6589cadccba2cc2793cf95718da1c44]
entity Merchants.Business--><g id="elem_Merchants.Business"><rect fill="#F1F1F1" height="47.6094" rx="2.5" ry="2.5" style="stroke:#181818;stroke-width:0.5;" width="167" x="1395.5" y="151"/><rect fill="#F1F1F1" height="10" style="stroke:#181818;stroke-width:0.5;" width="15" x="1542.5" y="156"/><rect fill="#F1F1F1" height="2" style="stroke:#181818;stroke-width:0.5;" width="4" x="1540.5" y="158"/><rect fill="#F1F1F1" height="2" style="stroke:#181818;stroke-width:0.5;" width="4" x="1540.5" y="162"/><text fill="#000000" font-family="sans-serif" font-size="14" lengthAdjust="spacing" textLength="127" x="1410.5" y="185.5332">Merchants.Business</text></g><!--MD5=[66639c922d1250222ec95de72666de9e]
entity Transactions.Api--><g id="elem_Transactions.Api"><rect fill="#F1F1F1" height="47.6094" rx="2.5" ry="2.5" style="stroke:#181818;stroke-width:0.5;" width="146" x="827" y="284"/><rect fill="#F1F1F1" height="10" style="stroke:#181818;stroke-width:0.5;" width="15" x="953" y="289"/><rect fill="#F1F1F1" height="2" style="stroke:#181818;stroke-width:0.5;" width="4" x="951" y="291"/><rect fill="#F1F1F1" height="2" style="stroke:#181818;stroke-width:0.5;" width="4" x="951" y="295"/><text fill="#000000" font-family="sans-serif" font-size="14" lengthAdjust="spacing" textLength="106" x="842" y="318.5332">Transactions.Api</text></g><!--MD5=[ebfbcfe8a02199f09570d43282cca005]
entity Transactions.Api.Client--><g id="elem_Transactions.Api.Client"><rect fill="#F1F1F1" height="47.6094" rx="2.5" ry="2.5" style="stroke:#181818;stroke-width:0.5;" width="186" x="798" y="410"/><rect fill="#F1F1F1" height="10" style="stroke:#181818;stroke-width:0.5;" width="15" x="964" y="415"/><rect fill="#F1F1F1" height="2" style="stroke:#181818;stroke-width:0.5;" width="4" x="962" y="417"/><rect fill="#F1F1F1" height="2" style="stroke:#181818;stroke-width:0.5;" width="4" x="962" y="421"/><text fill="#000000" font-family="sans-serif" font-size="14" lengthAdjust="spacing" textLength="146" x="813" y="444.5332">Transactions.Api.Client</text></g><!--MD5=[150038c4f7da086a54ffe5869b490fbc]
entity Transactions.Business--><g id="elem_Transactions.Business"><rect fill="#F1F1F1" height="47.6094" rx="2.5" ry="2.5" style="stroke:#181818;stroke-width:0.5;" width="183" x="864.5" y="151"/><rect fill="#F1F1F1" height="10" style="stroke:#181818;stroke-width:0.5;" width="15" x="1027.5" y="156"/><rect fill="#F1F1F1" height="2" style="stroke:#181818;stroke-width:0.5;" width="4" x="1025.5" y="158"/><rect fill="#F1F1F1" height="2" style="stroke:#181818;stroke-width:0.5;" width="4" x="1025.5" y="162"/><text fill="#000000" font-family="sans-serif" font-size="14" lengthAdjust="spacing" textLength="143" x="879.5" y="185.5332">Transactions.Business</text></g><!--MD5=[7db7dc8c1187eec6750b01529fed6596]
entity Transactions.Shared--><g id="elem_Transactions.Shared"><rect fill="#F1F1F1" height="47.6094" rx="2.5" ry="2.5" style="stroke:#181818;stroke-width:0.5;" width="172" x="790" y="42"/><rect fill="#F1F1F1" height="10" style="stroke:#181818;stroke-width:0.5;" width="15" x="942" y="47"/><rect fill="#F1F1F1" height="2" style="stroke:#181818;stroke-width:0.5;" width="4" x="940" y="49"/><rect fill="#F1F1F1" height="2" style="stroke:#181818;stroke-width:0.5;" width="4" x="940" y="53"/><text fill="#000000" font-family="sans-serif" font-size="14" lengthAdjust="spacing" textLength="132" x="805" y="76.5332">Transactions.Shared</text></g><!--MD5=[c706509d854dfc6d10a4c3a669ac4336]
entity MerchantProfileApi--><g id="elem_MerchantProfileApi"><rect fill="#F1F1F1" height="47.6094" rx="2.5" ry="2.5" style="stroke:#181818;stroke-width:0.5;" width="159" x="946.5" y="543"/><rect fill="#F1F1F1" height="10" style="stroke:#181818;stroke-width:0.5;" width="15" x="1085.5" y="548"/><rect fill="#F1F1F1" height="2" style="stroke:#181818;stroke-width:0.5;" width="4" x="1083.5" y="550"/><rect fill="#F1F1F1" height="2" style="stroke:#181818;stroke-width:0.5;" width="4" x="1083.5" y="554"/><text fill="#000000" font-family="sans-serif" font-size="14" lengthAdjust="spacing" textLength="119" x="961.5" y="577.5332">MerchantProfileApi</text></g><!--MD5=[1f0bf6fb2a2c344927c22c30218e3ca1]
entity MerchantProfileApi.Client--><g id="elem_MerchantProfileApi.Client"><rect fill="#F1F1F1" height="47.6094" rx="2.5" ry="2.5" style="stroke:#181818;stroke-width:0.5;" width="199" x="936.5" y="671"/><rect fill="#F1F1F1" height="10" style="stroke:#181818;stroke-width:0.5;" width="15" x="1115.5" y="676"/><rect fill="#F1F1F1" height="2" style="stroke:#181818;stroke-width:0.5;" width="4" x="1113.5" y="678"/><rect fill="#F1F1F1" height="2" style="stroke:#181818;stroke-width:0.5;" width="4" x="1113.5" y="682"/><text fill="#000000" font-family="sans-serif" font-size="14" lengthAdjust="spacing" textLength="159" x="951.5" y="705.5332">MerchantProfileApi.Client</text></g><!--MD5=[c0b07ff622066ec495aa3ed16412f008]
entity IdentityServer--><g id="elem_IdentityServer"><rect fill="#F1F1F1" height="47.6094" rx="2.5" ry="2.5" style="stroke:#181818;stroke-width:0.5;" width="127" x="1331.5" y="543"/><rect fill="#F1F1F1" height="10" style="stroke:#181818;stroke-width:0.5;" width="15" x="1438.5" y="548"/><rect fill="#F1F1F1" height="2" style="stroke:#181818;stroke-width:0.5;" width="4" x="1436.5" y="550"/><rect fill="#F1F1F1" height="2" style="stroke:#181818;stroke-width:0.5;" width="4" x="1436.5" y="554"/><text fill="#000000" font-family="sans-serif" font-size="14" lengthAdjust="spacing" textLength="87" x="1346.5" y="577.5332">IdentityServer</text></g><!--MD5=[bc016c7a286ec62a6ac6c0612277c31d]
entity IdentityServerClient--><g id="elem_IdentityServerClient"><rect fill="#F1F1F1" height="47.6094" rx="2.5" ry="2.5" style="stroke:#181818;stroke-width:0.5;" width="163" x="1493.5" y="543"/><rect fill="#F1F1F1" height="10" style="stroke:#181818;stroke-width:0.5;" width="15" x="1636.5" y="548"/><rect fill="#F1F1F1" height="2" style="stroke:#181818;stroke-width:0.5;" width="4" x="1634.5" y="550"/><rect fill="#F1F1F1" height="2" style="stroke:#181818;stroke-width:0.5;" width="4" x="1634.5" y="554"/><text fill="#000000" font-family="sans-serif" font-size="14" lengthAdjust="spacing" textLength="123" x="1508.5" y="577.5332">IdentityServerClient</text></g><!--MD5=[754bdc48755209ed5c7c1b3bdb5d6cd2]
entity Shared.Api--><g id="elem_Shared.Api"><rect fill="#F1F1F1" height="47.6094" rx="2.5" ry="2.5" style="stroke:#181818;stroke-width:0.5;" width="110" x="54" y="42"/><rect fill="#F1F1F1" height="10" style="stroke:#181818;stroke-width:0.5;" width="15" x="144" y="47"/><rect fill="#F1F1F1" height="2" style="stroke:#181818;stroke-width:0.5;" width="4" x="142" y="49"/><rect fill="#F1F1F1" height="2" style="stroke:#181818;stroke-width:0.5;" width="4" x="142" y="53"/><text fill="#000000" font-family="sans-serif" font-size="14" lengthAdjust="spacing" textLength="70" x="69" y="76.5332">Shared.Api</text></g><!--MD5=[cb7db01325939e55727dbacac5ba7c4a]
entity Shared.Business--><g id="elem_Shared.Business"><rect fill="#F1F1F1" height="47.6094" rx="2.5" ry="2.5" style="stroke:#181818;stroke-width:0.5;" width="147" x="205.5" y="42"/><rect fill="#F1F1F1" height="10" style="stroke:#181818;stroke-width:0.5;" width="15" x="332.5" y="47"/><rect fill="#F1F1F1" height="2" style="stroke:#181818;stroke-width:0.5;" width="4" x="330.5" y="49"/><rect fill="#F1F1F1" height="2" style="stroke:#181818;stroke-width:0.5;" width="4" x="330.5" y="53"/><text fill="#000000" font-family="sans-serif" font-size="14" lengthAdjust="spacing" textLength="107" x="220.5" y="76.5332">Shared.Business</text></g><!--MD5=[ab18a76e989ad229313073df1e20e629]
entity Shared.Helpers--><g id="elem_Shared.Helpers"><rect fill="#F1F1F1" height="47.6094" rx="2.5" ry="2.5" style="stroke:#181818;stroke-width:0.5;" width="138" x="22" y="151"/><rect fill="#F1F1F1" height="10" style="stroke:#181818;stroke-width:0.5;" width="15" x="140" y="156"/><rect fill="#F1F1F1" height="2" style="stroke:#181818;stroke-width:0.5;" width="4" x="138" y="158"/><rect fill="#F1F1F1" height="2" style="stroke:#181818;stroke-width:0.5;" width="4" x="138" y="162"/><text fill="#000000" font-family="sans-serif" font-size="14" lengthAdjust="spacing" textLength="98" x="37" y="185.5332">Shared.Helpers</text></g><!--MD5=[2aee5867840c90a5f4c8f5f04ec5bcbe]
entity Shared.Integration--><g id="elem_Shared.Integration"><rect fill="#F1F1F1" height="47.6094" rx="2.5" ry="2.5" style="stroke:#181818;stroke-width:0.5;" width="157" x="195.5" y="151"/><rect fill="#F1F1F1" height="10" style="stroke:#181818;stroke-width:0.5;" width="15" x="332.5" y="156"/><rect fill="#F1F1F1" height="2" style="stroke:#181818;stroke-width:0.5;" width="4" x="330.5" y="158"/><rect fill="#F1F1F1" height="2" style="stroke:#181818;stroke-width:0.5;" width="4" x="330.5" y="162"/><text fill="#000000" font-family="sans-serif" font-size="14" lengthAdjust="spacing" textLength="117" x="210.5" y="185.5332">Shared.Integration</text></g><!--MD5=[2d143478e0f7ad82e24db0b47516d04a]
entity Reporting.Api--><g id="elem_Reporting.Api"><rect fill="#F1F1F1" height="47.6094" rx="2.5" ry="2.5" style="stroke:#181818;stroke-width:0.5;" width="126" x="409" y="42"/><rect fill="#F1F1F1" height="10" style="stroke:#181818;stroke-width:0.5;" width="15" x="515" y="47"/><rect fill="#F1F1F1" height="2" style="stroke:#181818;stroke-width:0.5;" width="4" x="513" y="49"/><rect fill="#F1F1F1" height="2" style="stroke:#181818;stroke-width:0.5;" width="4" x="513" y="53"/><text fill="#000000" font-family="sans-serif" font-size="14" lengthAdjust="spacing" textLength="86" x="424" y="76.5332">Reporting.Api</text></g><!--MD5=[430d1b23166d7185302c352b412d1c0b]
entity Reporting.Business--><g id="elem_Reporting.Business"><rect fill="#F1F1F1" height="47.6094" rx="2.5" ry="2.5" style="stroke:#181818;stroke-width:0.5;" width="163" x="570.5" y="42"/><rect fill="#F1F1F1" height="10" style="stroke:#181818;stroke-width:0.5;" width="15" x="713.5" y="47"/><rect fill="#F1F1F1" height="2" style="stroke:#181818;stroke-width:0.5;" width="4" x="711.5" y="49"/><rect fill="#F1F1F1" height="2" style="stroke:#181818;stroke-width:0.5;" width="4" x="711.5" y="53"/><text fill="#000000" font-family="sans-serif" font-size="14" lengthAdjust="spacing" textLength="123" x="585.5" y="76.5332">Reporting.Business</text></g><!--MD5=[539b01300ac1e2d40e6c15dd4e834caf]
entity Reporting.Shared--><g id="elem_Reporting.Shared"><rect fill="#F1F1F1" height="47.6094" rx="2.5" ry="2.5" style="stroke:#181818;stroke-width:0.5;" width="152" x="409" y="151"/><rect fill="#F1F1F1" height="10" style="stroke:#181818;stroke-width:0.5;" width="15" x="541" y="156"/><rect fill="#F1F1F1" height="2" style="stroke:#181818;stroke-width:0.5;" width="4" x="539" y="158"/><rect fill="#F1F1F1" height="2" style="stroke:#181818;stroke-width:0.5;" width="4" x="539" y="162"/><text fill="#000000" font-family="sans-serif" font-size="14" lengthAdjust="spacing" textLength="112" x="424" y="185.5332">Reporting.Shared</text></g><!--MD5=[b94308137637f8903d4941d6b4bb6b26]
entity Bit--><g id="elem_Bit"><rect fill="#F1F1F1" height="47.6094" rx="2.5" ry="2.5" style="stroke:#181818;stroke-width:0.5;" width="56" x="63" y="284"/><rect fill="#F1F1F1" height="10" style="stroke:#181818;stroke-width:0.5;" width="15" x="99" y="289"/><rect fill="#F1F1F1" height="2" style="stroke:#181818;stroke-width:0.5;" width="4" x="97" y="291"/><rect fill="#F1F1F1" height="2" style="stroke:#181818;stroke-width:0.5;" width="4" x="97" y="295"/><text fill="#000000" font-family="sans-serif" font-size="14" lengthAdjust="spacing" textLength="16" x="78" y="318.5332">Bit</text></g><!--MD5=[cdc68490933d98f9d3abc34114a700c9]
entity ClearingHouse--><g id="elem_ClearingHouse"><rect fill="#F1F1F1" height="47.6094" rx="2.5" ry="2.5" style="stroke:#181818;stroke-width:0.5;" width="133" x="154.5" y="284"/><rect fill="#F1F1F1" height="10" style="stroke:#181818;stroke-width:0.5;" width="15" x="267.5" y="289"/><rect fill="#F1F1F1" height="2" style="stroke:#181818;stroke-width:0.5;" width="4" x="265.5" y="291"/><rect fill="#F1F1F1" height="2" style="stroke:#181818;stroke-width:0.5;" width="4" x="265.5" y="295"/><text fill="#000000" font-family="sans-serif" font-size="14" lengthAdjust="spacing" textLength="93" x="169.5" y="318.5332">ClearingHouse</text></g><!--MD5=[1a1a030c2727eb87e6981e99c82fbdb2]
entity EasyInvoice--><g id="elem_EasyInvoice"><rect fill="#F1F1F1" height="47.6094" rx="2.5" ry="2.5" style="stroke:#181818;stroke-width:0.5;" width="115" x="322.5" y="284"/><rect fill="#F1F1F1" height="10" style="stroke:#181818;stroke-width:0.5;" width="15" x="417.5" y="289"/><rect fill="#F1F1F1" height="2" style="stroke:#181818;stroke-width:0.5;" width="4" x="415.5" y="291"/><rect fill="#F1F1F1" height="2" style="stroke:#181818;stroke-width:0.5;" width="4" x="415.5" y="295"/><text fill="#000000" font-family="sans-serif" font-size="14" lengthAdjust="spacing" textLength="75" x="337.5" y="318.5332">EasyInvoice</text></g><!--MD5=[b12ad90800ac79086fcafb0e20293fe7]
entity Upay--><g id="elem_Upay"><rect fill="#F1F1F1" height="47.6094" rx="2.5" ry="2.5" style="stroke:#181818;stroke-width:0.5;" width="72" x="64" y="410"/><rect fill="#F1F1F1" height="10" style="stroke:#181818;stroke-width:0.5;" width="15" x="116" y="415"/><rect fill="#F1F1F1" height="2" style="stroke:#181818;stroke-width:0.5;" width="4" x="114" y="417"/><rect fill="#F1F1F1" height="2" style="stroke:#181818;stroke-width:0.5;" width="4" x="114" y="421"/><text fill="#000000" font-family="sans-serif" font-size="14" lengthAdjust="spacing" textLength="32" x="79" y="444.5332">Upay</text></g><!--MD5=[e5462f6c6495da8a52e78d13280b7a80]
entity RapidOne--><g id="elem_RapidOne"><rect fill="#F1F1F1" height="47.6094" rx="2.5" ry="2.5" style="stroke:#181818;stroke-width:0.5;" width="104" x="171" y="410"/><rect fill="#F1F1F1" height="10" style="stroke:#181818;stroke-width:0.5;" width="15" x="255" y="415"/><rect fill="#F1F1F1" height="2" style="stroke:#181818;stroke-width:0.5;" width="4" x="253" y="417"/><rect fill="#F1F1F1" height="2" style="stroke:#181818;stroke-width:0.5;" width="4" x="253" y="421"/><text fill="#000000" font-family="sans-serif" font-size="14" lengthAdjust="spacing" textLength="64" x="186" y="444.5332">RapidOne</text></g><!--MD5=[d881db867efb19fd119f6b8a1cbe9250]
entity Shva--><g id="elem_Shva"><rect fill="#F1F1F1" height="47.6094" rx="2.5" ry="2.5" style="stroke:#181818;stroke-width:0.5;" width="72" x="310" y="410"/><rect fill="#F1F1F1" height="10" style="stroke:#181818;stroke-width:0.5;" width="15" x="362" y="415"/><rect fill="#F1F1F1" height="2" style="stroke:#181818;stroke-width:0.5;" width="4" x="360" y="417"/><rect fill="#F1F1F1" height="2" style="stroke:#181818;stroke-width:0.5;" width="4" x="360" y="421"/><text fill="#000000" font-family="sans-serif" font-size="14" lengthAdjust="spacing" textLength="32" x="325" y="444.5332">Shva</text></g><!--MD5=[20e94eead02ea37f12bda4df0237af82]
entity Nayax--><g id="elem_Nayax"><rect fill="#F1F1F1" height="47.6094" rx="2.5" ry="2.5" style="stroke:#181818;stroke-width:0.5;" width="78" x="63" y="543"/><rect fill="#F1F1F1" height="10" style="stroke:#181818;stroke-width:0.5;" width="15" x="121" y="548"/><rect fill="#F1F1F1" height="2" style="stroke:#181818;stroke-width:0.5;" width="4" x="119" y="550"/><rect fill="#F1F1F1" height="2" style="stroke:#181818;stroke-width:0.5;" width="4" x="119" y="554"/><text fill="#000000" font-family="sans-serif" font-size="14" lengthAdjust="spacing" textLength="38" x="78" y="577.5332">Nayax</text></g><!--MD5=[19438bf1b115b707d8244401020662e1]
entity CheckoutPortal--><g id="elem_CheckoutPortal"><rect fill="#F1F1F1" height="47.6094" rx="2.5" ry="2.5" style="stroke:#181818;stroke-width:0.5;" width="137" x="766.5" y="543"/><rect fill="#F1F1F1" height="10" style="stroke:#181818;stroke-width:0.5;" width="15" x="883.5" y="548"/><rect fill="#F1F1F1" height="2" style="stroke:#181818;stroke-width:0.5;" width="4" x="881.5" y="550"/><rect fill="#F1F1F1" height="2" style="stroke:#181818;stroke-width:0.5;" width="4" x="881.5" y="554"/><text fill="#000000" font-family="sans-serif" font-size="14" lengthAdjust="spacing" textLength="97" x="781.5" y="577.5332">CheckoutPortal</text></g><!--MD5=[76dbe7c3dd4ba71e73685a059aaf74bd]
entity FunctionsCompositionApp--><g id="elem_FunctionsCompositionApp"><rect fill="#F1F1F1" height="47.6094" rx="2.5" ry="2.5" style="stroke:#181818;stroke-width:0.5;" width="205" x="1080.5" y="42"/><rect fill="#F1F1F1" height="10" style="stroke:#181818;stroke-width:0.5;" width="15" x="1265.5" y="47"/><rect fill="#F1F1F1" height="2" style="stroke:#181818;stroke-width:0.5;" width="4" x="1263.5" y="49"/><rect fill="#F1F1F1" height="2" style="stroke:#181818;stroke-width:0.5;" width="4" x="1263.5" y="53"/><text fill="#000000" font-family="sans-serif" font-size="14" lengthAdjust="spacing" textLength="165" x="1095.5" y="76.5332">FunctionsCompositionApp</text></g><!--MD5=[f58046c26d6033d6ab327af9bb2380df]
link Merchants.Shared to Merchants.Api--><g id="link_Merchants.Shared_Merchants.Api"><path d="M1389.09,90.25 C1377.31,121.43 1361.21,178.08 1378,223 C1386.23,245.02 1403.13,265.09 1418.6,280.08 " fill="none" id="Merchants.Shared-to-Merchants.Api" style="stroke:#181818;stroke-width:1.0;"/><polygon fill="#181818" points="1422.5,283.78,1418.7244,274.6836,1418.8729,280.3385,1413.218,280.487,1422.5,283.78" style="stroke:#181818;stroke-width:1.0;"/></g><!--MD5=[b776841cba2f548aaa6d64aadba79c9b]
link Merchants.Shared to Merchants.Api.Client--><g id="link_Merchants.Shared_Merchants.Api.Client"><path d="M1385.07,90.27 C1376.3,106.61 1366.08,129.32 1363,151 C1351.67,230.67 1351.79,253.17 1368,332 C1373.28,357.65 1384.12,385.41 1392.88,405.32 " fill="none" id="Merchants.Shared-to-Merchants.Api.Client" style="stroke:#181818;stroke-width:1.0;"/><polygon fill="#181818" points="1394.94,409.95,1394.9457,400.1011,1392.912,405.3798,1387.6333,403.346,1394.94,409.95" style="stroke:#181818;stroke-width:1.0;"/></g><!--MD5=[bcf010d7a50c8331b306c15d304e588f]
link Merchants.Shared to Merchants.Business--><g id="link_Merchants.Shared_Merchants.Business"><path d="M1416.36,90.22 C1428.73,106.76 1445.41,129.07 1458.44,146.51 " fill="none" id="Merchants.Shared-to-Merchants.Business" style="stroke:#181818;stroke-width:1.0;"/><polygon fill="#181818" points="1461.68,150.83,1459.502,141.225,1458.6892,146.8231,1453.091,146.0103,1461.68,150.83" style="stroke:#181818;stroke-width:1.0;"/></g><!--MD5=[eac933fc3e46b4d9007e1b75852b5f9b]
link Merchants.Business to Merchants.Api--><g id="link_Merchants.Business_Merchants.Api"><path d="M1474.06,199.12 C1469.31,221.34 1462.12,254.96 1457.04,278.75 " fill="none" id="Merchants.Business-to-Merchants.Api" style="stroke:#181818;stroke-width:1.0;"/><polygon fill="#181818" points="1455.99,283.67,1461.7806,275.7033,1457.0337,278.7802,1453.9569,274.0333,1455.99,283.67" style="stroke:#181818;stroke-width:1.0;"/></g><!--MD5=[70b70e8f7925b64af7052a713d87f0d5]
link Merchants.Api to Merchants.Api.Client--><g id="link_Merchants.Api_Merchants.Api.Client"><path d="M1439.07,332.12 C1434.62,341.28 1429.74,351.99 1426,362 C1420.82,375.87 1416.23,391.7 1412.77,404.89 " fill="none" id="Merchants.Api-to-Merchants.Api.Client" style="stroke:#181818;stroke-width:1.0;stroke-dasharray:7.0,7.0;"/><polygon fill="#181818" points="1411.45,409.99,1417.5886,402.2882,1412.7098,405.1513,1409.8466,400.2725,1411.45,409.99" style="stroke:#181818;stroke-width:1.0;"/><text fill="#000000" font-family="sans-serif" font-size="13" lengthAdjust="spacing" textLength="100" x="1427" y="376.4951">linked model files</text></g><!--MD5=[de1473f26caeba633a095628d909969f]
link Transactions.Shared to Transactions.Api--><g id="link_Transactions.Shared_Transactions.Api"><path d="M865.11,90.06 C852.08,120.79 833.61,176.69 847,223 C852.95,243.59 865.62,263.99 877.08,279.53 " fill="none" id="Transactions.Shared-to-Transactions.Api" style="stroke:#181818;stroke-width:1.0;"/><polygon fill="#181818" points="880.27,283.78,878.0481,274.185,877.2609,279.7869,871.6591,278.9996,880.27,283.78" style="stroke:#181818;stroke-width:1.0;"/></g><!--MD5=[3fb1373b7a802e3d0a7d3f88742364cf]
link Transactions.Shared to Transactions.Api.Client--><g id="link_Transactions.Shared_Transactions.Api.Client"><path d="M861.13,90.11 C833.13,136.68 778.06,244.79 809,332 C819.27,360.94 841.75,387.62 860.58,406.28 " fill="none" id="Transactions.Shared-to-Transactions.Api.Client" style="stroke:#181818;stroke-width:1.0;"/><polygon fill="#181818" points="864.3,409.91,860.6348,400.7685,860.7148,406.4248,855.0585,406.5048,864.3,409.91" style="stroke:#181818;stroke-width:1.0;"/></g><!--MD5=[58ecabefbdd89bbae49b9df7e703f906]
link Transactions.Shared to Transactions.Business--><g id="link_Transactions.Shared_Transactions.Business"><path d="M893.36,90.22 C905.73,106.76 922.41,129.07 935.44,146.51 " fill="none" id="Transactions.Shared-to-Transactions.Business" style="stroke:#181818;stroke-width:1.0;"/><polygon fill="#181818" points="938.68,150.83,936.502,141.225,935.6892,146.8231,930.091,146.0103,938.68,150.83" style="stroke:#181818;stroke-width:1.0;"/></g><!--MD5=[5a188a85b039e818397008e8bde8b3a7]
link Transactions.Business to Transactions.Api--><g id="link_Transactions.Business_Transactions.Api"><path d="M946.12,199.12 C936.58,221.43 922.13,255.24 911.95,279.05 " fill="none" id="Transactions.Business-to-Transactions.Api" style="stroke:#181818;stroke-width:1.0;"/><polygon fill="#181818" points="909.97,283.67,917.1742,276.9544,911.9275,279.0691,909.8128,273.8224,909.97,283.67" style="stroke:#181818;stroke-width:1.0;"/></g><!--MD5=[8d41990b9d9db021b6f0bbff8062270d]
link Transactions.Api to Transactions.Api.Client--><g id="link_Transactions.Api_Transactions.Api.Client"><path d="M898.33,332.03 C896.84,352.52 894.66,382.56 893.07,404.55 " fill="none" id="Transactions.Api-to-Transactions.Api.Client" style="stroke:#181818;stroke-width:1.0;stroke-dasharray:7.0,7.0;"/><polygon fill="#181818" points="892.69,409.67,897.3228,400.9788,893.0473,404.6828,889.3433,400.4072,892.69,409.67" style="stroke:#181818;stroke-width:1.0;"/><text fill="#000000" font-family="sans-serif" font-size="13" lengthAdjust="spacing" textLength="100" x="898" y="376.4951">linked model files</text></g><!--MD5=[9fc8618583353ab7a0d670075cbacb7d]
link MerchantProfileApi to MerchantProfileApi.Client--><g id="link_MerchantProfileApi_MerchantProfileApi.Client"><path d="M1027.83,591.11 C1029.49,612.03 1031.94,642.91 1033.73,665.38 " fill="none" id="MerchantProfileApi-to-MerchantProfileApi.Client" style="stroke:#181818;stroke-width:1.0;stroke-dasharray:7.0,7.0;"/><polygon fill="#181818" points="1034.14,670.61,1037.4339,661.3283,1033.7543,665.6249,1029.4577,661.9453,1034.14,670.61" style="stroke:#181818;stroke-width:1.0;"/><text fill="#000000" font-family="sans-serif" font-size="13" lengthAdjust="spacing" textLength="100" x="1033" y="637.4951">linked model files</text></g><!--MD5=[768fd35204cd8b191b077b3c25060ece]
link Merchants.Api.Client to IdentityServer--><g id="link_Merchants.Api.Client_IdentityServer"><path d="M1404.06,458.12 C1402.2,480.24 1399.39,513.68 1397.4,537.45 " fill="none" id="Merchants.Api.Client-to-IdentityServer" style="stroke:#181818;stroke-width:1.0;"/><polygon fill="#181818" points="1396.96,542.67,1401.7161,534.0456,1397.3882,537.6884,1393.7455,533.3605,1396.96,542.67" style="stroke:#181818;stroke-width:1.0;"/></g><!--MD5=[783ea25cd443cecd798576ffe65ede10]
link IdentityServerClient to Merchants.Api--><g id="link_IdentityServerClient_Merchants.Api"><path d="M1575.64,543 C1575.64,502.75 1570.6,418.48 1532,362 C1524.72,351.34 1514.51,342.31 1503.8,334.89 " fill="none" id="IdentityServerClient-to-Merchants.Api" style="stroke:#181818;stroke-width:1.0;"/><polygon fill="#181818" points="1499.51,332.02,1504.7599,340.353,1503.6637,334.8034,1509.2133,333.7072,1499.51,332.02" style="stroke:#181818;stroke-width:1.0;"/></g><!--MD5=[27d36383002e6851c36c8d3f57878c8a]
link Transactions.Api.Client to MerchantProfileApi--><g id="link_Transactions.Api.Client_MerchantProfileApi"><path d="M914.82,458.12 C938.1,480.71 973.53,515.09 998.11,538.94 " fill="none" id="Transactions.Api.Client-to-MerchantProfileApi" style="stroke:#181818;stroke-width:1.0;"/><polygon fill="#181818" points="1001.96,542.67,998.2767,533.5358,998.3679,539.1919,992.7118,539.2832,1001.96,542.67" style="stroke:#181818;stroke-width:1.0;"/></g><!--MD5=[63208762433fd738d7bc453cdc18cbc3]
link Transactions.Api.Client to CheckoutPortal--><g id="link_Transactions.Api.Client_CheckoutPortal"><path d="M881.12,458.12 C871.58,480.43 857.13,514.24 846.95,538.05 " fill="none" id="Transactions.Api.Client-to-CheckoutPortal" style="stroke:#181818;stroke-width:1.0;"/><polygon fill="#181818" points="844.97,542.67,852.1742,535.9544,846.9275,538.0691,844.8128,532.8224,844.97,542.67" style="stroke:#181818;stroke-width:1.0;"/></g><!--MD5=[4c7cddf4a8eded5e3ec2a9b8392a3bd2]
@startuml


folder "Management API" {
    [Merchants.Api]
    [Merchants.Api.Client]
    [Merchants.Shared]
    [Merchants.Business]

    [Merchants.Shared]- ->[Merchants.Api]
    [Merchants.Shared]- ->[Merchants.Api.Client]
    [Merchants.Shared]- ->[Merchants.Business]
    [Merchants.Business]- ->[Merchants.Api]
    [Merchants.Api]..>[Merchants.Api.Client] : linked model files
    
}

folder "Business API" {
    [Transactions.Api]
    [Transactions.Api.Client]
    [Transactions.Business]
    [Transactions.Shared]

    [Transactions.Shared]- ->[Transactions.Api]
    [Transactions.Shared]- ->[Transactions.Api.Client]
    [Transactions.Shared]- ->[Transactions.Business]
    [Transactions.Business]- ->[Transactions.Api]
    [Transactions.Api]..>[Transactions.Api.Client] : linked model files
}

folder "Merchant's metadata" {
    [MerchantProfileApi]
    [MerchantProfileApi.Client]

    [MerchantProfileApi]..>[MerchantProfileApi.Client] : linked model files
}

[CheckoutPortal]

folder "Identity" {
    [IdentityServer]
    [IdentityServerClient]
}

folder "Shared" {
    [Shared.Api]
    [Shared.Business]
    [Shared.Helpers]
    [Shared.Integration]
}

[FunctionsCompositionApp]

folder "Reporting" {
    [Reporting.Api]
    [Reporting.Business]
    [Reporting.Shared]
}

folder "Integrations" {
    [Bit]
    [ClearingHouse]
    [EasyInvoice]
    [Upay]
    [RapidOne]
    [Shva]
    [Nayax]
}








[Merchants.Api.Client]- ->[IdentityServer]

[IdentityServerClient]- ->[Merchants.Api]




[Transactions.Api.Client]- ->[MerchantProfileApi]
[Transactions.Api.Client]- ->[CheckoutPortal]


@enduml

PlantUML version 1.2022.7(Mon Aug 22 20:01:30 EEST 2022)
(GPL source distribution)
Java Runtime: OpenJDK Runtime Environment
JVM: OpenJDK 64-Bit Server VM
Default Encoding: UTF-8
Language: en
Country: US
--></g></svg>