<svg xmlns="http://www.w3.org/2000/svg" width="65" height="36" viewBox="0 0 65 36">
    <g fill="none" fill-rule="evenodd">
        <path fill="#FFF" d="M9.582 14.463v7.074c0 3.9 3.13 7.074 6.977 7.074 3.847 0 6.976-3.173 6.976-7.074 0-3.9-3.13-7.074-6.976-7.074H9.582zm6.977 18.984c-6.477 0-11.746-5.343-11.746-11.91v-7.074H2.385C1.068 14.463 0 13.38 0 12.045c0-1.336 1.068-2.418 2.385-2.418h2.428v-7.03C4.813 1.26 5.881.179 7.198.179c1.317 0 2.384 1.082 2.384 2.418v7.03h6.977c6.476 0 11.745 5.343 11.745 11.91s-5.269 11.91-11.745 11.91zM31.838 33.447c-1.317 0-2.385-1.082-2.385-2.418V12.045c0-1.336 1.068-2.418 2.385-2.418 1.317 0 2.384 1.082 2.384 2.418v18.984c0 1.336-1.067 2.418-2.384 2.418M50.201 28.609c-3.81-.099-6.794-3.205-6.794-7.072v-7.074h5.976c1.317 0 2.384-1.083 2.384-2.418 0-1.336-1.067-2.418-2.384-2.418h-5.976v-7.03c0-1.335-1.068-2.418-2.385-2.418-1.317 0-2.384 1.083-2.384 2.418v7.03h-1.016c-1.317 0-2.384 1.082-2.384 2.418 0 1.335 1.067 2.418 2.384 2.418h1.016v7.074c0 3.128 1.186 6.082 3.34 8.32 2.151 2.233 5.028 3.507 8.102 3.586h.062c1.288 0 2.35-1.041 2.382-2.355.034-1.335-1.006-2.445-2.323-2.48"/>
        <path fill="#D32733" d="M34.487 5.754c0 1.483-1.186 2.686-2.65 2.686-1.463 0-2.649-1.203-2.649-2.686 0-1.484 1.186-2.687 2.65-2.687 1.463 0 2.65 1.203 2.65 2.687M54.712 35.886l9.84-5.566a.637.637 0 0 0-.09-1.15l-10.588-3.91a.41.41 0 0 0-.498.183.435.435 0 0 0-.018.386l1.526 3.6c.11.26.357.432.635.445l4.35.194a.053.053 0 0 1 .05.049.053.053 0 0 1-.042.057l-4.264.892a.731.731 0 0 0-.558.542l-.941 3.8a.435.435 0 0 0 .077.378c.13.16.35.197.52.1"/>
    </g>
</svg>
