<svg xmlns="http://www.w3.org/2000/svg" width="39" height="21" viewBox="0 0 39 21">
  <g fill="none" fill-rule="evenodd" class="partners">
    <g class="partners_07_march" transform="translate(-1398 -2185)">
      <g class="group_48" transform="translate(1398 2185)">
        <path fill="#D32733" d="M20.765 3.29c0 .865-.717 1.566-1.6 1.566-.884 0-1.6-.7-1.6-1.566 0-.865.716-1.567 1.6-1.567.883 0 1.6.702 1.6 1.567" class="fill_9"/>
        <path fill="#0A2E50" d="M5.749 8.288v4.105c0 2.263 1.877 4.105 4.185 4.105s4.186-1.842 4.186-4.105c0-2.264-1.878-4.105-4.186-4.105H5.75zm4.185 11.016c-3.885 0-7.046-3.1-7.046-6.911V8.288H1.43C.64 8.288 0 7.66 0 6.885s.64-1.403 1.43-1.403h1.458V1.403C2.888.628 3.528 0 4.318 0c.79 0 1.43.628 1.43 1.403v4.08h4.186c3.886 0 7.047 3.1 7.047 6.91s-3.161 6.91-7.047 6.91z" class="fill_1"/>
        <path fill="#0A2E50" d="M19.13 19.338c-.786 0-1.423-.63-1.423-1.406V6.889c0-.776.637-1.406 1.422-1.406.786 0 1.422.63 1.422 1.406v11.043c0 .776-.636 1.406-1.422 1.406" class="fill_4"/>
        <path fill="#0A2E50" d="M30.225 16.496c-2.297-.057-4.096-1.86-4.096-4.103V8.288h3.603c.794 0 1.438-.628 1.438-1.403s-.644-1.403-1.438-1.403h-3.603V1.403C26.129.628 25.485 0 24.69 0c-.794 0-1.438.628-1.438 1.403v4.079h-.612c-.794 0-1.437.628-1.437 1.403s.643 1.403 1.437 1.403h.612v4.105c0 1.815.716 3.529 2.015 4.827a7.125 7.125 0 0 0 4.921 2.082c.777 0 1.417-.605 1.437-1.367.02-.775-.607-1.419-1.4-1.439" class="fill_6"/>
        <path fill="#D32733" d="M32.88 20.769l5.927-3.243a.368.368 0 0 0-.055-.67l-6.377-2.279a.25.25 0 0 0-.3.106.246.246 0 0 0-.01.225l.918 2.098a.438.438 0 0 0 .383.26l2.62.112c.016.001.03.013.03.03a.032.032 0 0 1-.025.032l-2.568.52a.434.434 0 0 0-.336.316l-.568 2.214a.247.247 0 0 0 .047.22c.079.094.21.116.314.059" class="fill_11"/>
      </g>
    </g>
  </g>
</svg>
