<svg xmlns="http://www.w3.org/2000/svg" width="26" height="14" viewBox="0 0 26 14">
  <g fill="none" fill-rule="evenodd" class="partners">
    <g class="partners_07_march" transform="translate(-1317 -2345)">
      <g class="group_4" transform="translate(1281 2325)">
        <g class="group_36" transform="translate(36 18)">
          <g class="bit_logo" transform="translate(0 2)">
            <path fill="#D32733" d="M13.829 2.226c0 .58-.477 1.05-1.066 1.05-.588 0-1.065-.47-1.065-1.05 0-.58.477-1.05 1.065-1.05.589 0 1.066.47 1.066 1.05" class="fill_9"/>
            <path fill="#FFF" d="M3.829 5.576v2.75c0 1.517 1.25 2.751 2.787 2.751s2.788-1.234 2.788-2.75c0-1.517-1.25-2.751-2.788-2.751H3.83zm2.787 7.382c-2.588 0-4.693-2.078-4.693-4.631V5.576h-.97A.946.946 0 0 1 0 4.636c0-.52.427-.94.953-.94h.97V.961c0-.52.427-.94.953-.94s.953.42.953.94v2.733h2.787c2.588 0 4.693 2.078 4.693 4.631 0 2.554-2.105 4.632-4.693 4.632z" class="fill_1"/>
            <path fill="#FFF" d="M12.74 12.98a.945.945 0 0 1-.948-.942v-7.4c0-.52.424-.942.948-.942.523 0 .947.422.947.942v7.4c0 .52-.424.943-.947.943" class="fill_4"/>
            <path fill="#FFF" d="M20.13 11.076c-1.53-.038-2.73-1.246-2.73-2.75v-2.75h2.4a.95.95 0 0 0 .957-.94c0-.52-.429-.94-.957-.94h-2.4V.961c0-.52-.429-.94-.957-.94a.949.949 0 0 0-.958.94v2.733h-.408a.949.949 0 0 0-.957.94c0 .52.429.94.957.94h.408v2.751c0 1.217.477 2.365 1.342 3.236a4.73 4.73 0 0 0 3.252 1.394h.025a.95.95 0 0 0 .957-.916.948.948 0 0 0-.933-.964" class="fill_6"/>
            <path fill="#D32733" d="M21.897 13.94l3.947-2.174a.247.247 0 0 0-.036-.449L21.56 9.79a.167.167 0 0 0-.2.071.166.166 0 0 0-.007.151l.612 1.406a.291.291 0 0 0 .255.174l1.745.075c.01 0 .02.01.02.02s-.006.02-.017.022l-1.71.348a.29.29 0 0 0-.224.212l-.378 1.484a.166.166 0 0 0 .031.147c.052.063.14.077.209.04" class="fill_11"/>
          </g>
        </g>
      </g>
    </g>
  </g>
</svg>
