<svg xmlns="http://www.w3.org/2000/svg" xmlns:xlink="http://www.w3.org/1999/xlink" width="191" height="54" viewBox="0 0 191 54">
  <defs>
    <linearGradient id="linearGradient-1" x1="50%" x2="50%" y1="0%" y2="91.063%">
      <stop offset="0%" stop-color="#2B5586"/>
      <stop offset="100%" stop-color="#3B96B1"/>
    </linearGradient>
    <path id="path-2" d="M118.592 12c.072 0 .108-.042.108-.126V6.312c.264-.336.606-.63 1.026-.882.42-.24.834-.36 1.242-.36.504 0 .882.162 1.134.486.24.348.36.81.36 1.386v3.672h-1.746c-.072 0-.108.042-.108.126v1.134c0 .084.036.126.108.126h3.222a.316.316 0 0 0 .09-.036.122.122 0 0 0 .036-.09V6.816c0-.936-.246-1.686-.738-2.25-.504-.552-1.2-.828-2.088-.828a2.93 2.93 0 0 0-1.494.396c-.444.264-.792.546-1.044.846h-.018v-.072c0-.204-.018-.396-.054-.576a1.674 1.674 0 0 0-.108-.378c-.036-.048-.09-.072-.162-.072h-1.314c-.096 0-.126.048-.09.144.072.204.126.384.162.54.024.216.036.402.036.558v6.75c0 .084.042.126.126.126h1.314zm-6.318 0c.468 0 .924-.144 1.368-.432a3.021 3.021 0 0 0 1.062-1.134c.264-.456.396-.972.396-1.548V4.008c0-.084-.042-.126-.126-.126h-1.314c-.084 0-.126.042-.126.126v4.968c0 .3-.072.576-.216.828a1.674 1.674 0 0 1-.504.594c-.204.144-.384.216-.54.216h-.108l-1.962-6.642c-.024-.06-.072-.09-.144-.09h-1.314c-.084 0-.114.048-.09.144l1.926 6.588H108.8c-.084 0-.126.042-.126.126v1.134c0 .084.042.126.126.126h3.474zm-4.95 0c.084 0 .126-.042.126-.126V10.74c0-.084-.042-.126-.126-.126h-.882V6.42c0-.96-.27-1.65-.81-2.07-.552-.408-1.248-.612-2.088-.612-.828 0-1.596.132-2.304.396-.072.012-.108.06-.108.144v1.224c0 .036.018.066.054.09.024.024.054.024.09 0 .42-.12.786-.21 1.098-.27.24-.048.534-.072.882-.072.528 0 .93.09 1.206.27.276.18.414.522.414 1.026v4.068h-3.798c-.084 0-.126.042-.126.126v1.134c0 .084.042.126.126.126h6.246zm-8.1 0c.084 0 .126-.042.126-.126v-5.4c0-.936-.264-1.632-.792-2.088-.54-.432-1.242-.648-2.106-.648-.384 0-.78.036-1.188.108a5.758 5.758 0 0 0-1.134.288c-.072.012-.108.06-.108.144v1.224c0 .084.036.126.108.126h.036c.756-.252 1.47-.378 2.142-.378.432 0 .786.09 1.062.27.276.204.414.546.414 1.026v5.328c0 .084.042.126.126.126h1.314zm-13.122.18c1.932 0 2.898-.972 2.898-2.916V4.008c0-.084-.036-.126-.108-.126H84.59V2.064c0-.084-.042-.126-.126-.126h-1.332c-.084 0-.126.042-.126.126v3.06c0 .084.042.126.126.126h4.302v3.834c0 .552-.096.948-.288 1.188-.192.264-.612.396-1.26.396-.12 0-.336-.012-.648-.036a3.085 3.085 0 0 1-.369-.027.77.77 0 0 0-.081-.009c-.096 0-.144.042-.144.126v1.206c0 .072.036.114.108.126.3.084.75.126 1.35.126zm-11.682-.072c.708 0 1.29-.168 1.746-.504.468-.336.702-.984.702-1.944V5.358c.432-.108.942-.162 1.53-.162.54 0 .954.09 1.242.27.288.204.432.564.432 1.08v5.328c0 .084.042.126.126.126h1.35c.084 0 .126-.042.126-.126V6.726c0-1.044-.252-1.806-.756-2.286-.528-.468-1.314-.702-2.358-.702-.984 0-2.04.138-3.168.414-.024 0-.048.012-.072.036a.316.316 0 0 0-.036.09V9.39c0 .312-.012.576-.036.792a.606.606 0 0 1-.27.36c-.156.084-.414.126-.774.126l-.288-.018c-.084 0-.126.042-.126.126v1.152c0 .072.036.12.108.144.192.024.366.036.522.036zm-6.03.072c.828 0 1.536-.186 2.124-.558.6-.36 1.05-.864 1.35-1.512.312-.66.468-1.398.468-2.214V4.008c0-.084-.042-.126-.126-.126h-1.35c-.084 0-.126.042-.126.126v3.888c0 .864-.192 1.56-.576 2.088-.396.528-.984.792-1.764.792-.528 0-.966-.12-1.314-.36-.348-.24-.612-.582-.792-1.026.936-.108 1.65-.42 2.142-.936.504-.516.756-1.176.756-1.98V4.008c0-.084-.042-.126-.126-.126h-1.314c-.084 0-.126.042-.126.126v2.628c0 .444-.12.822-.36 1.134-.228.3-.624.534-1.188.702a11.15 11.15 0 0 1-.036-.576V4.008c0-.084-.042-.126-.126-.126h-1.332c-.084 0-.126.042-.126.126v3.888c0 .816.156 1.554.468 2.214.3.636.756 1.14 1.368 1.512.588.372 1.29.558 2.106.558zm-8.838 0c1.932 0 2.898-.972 2.898-2.916V4.008c0-.084-.036-.126-.108-.126H58.04V2.064c0-.084-.042-.126-.126-.126h-1.332c-.084 0-.126.042-.126.126v3.06c0 .084.042.126.126.126h4.302v3.834c0 .552-.096.948-.288 1.188-.192.264-.612.396-1.26.396-.12 0-.336-.012-.648-.036a3.085 3.085 0 0 1-.369-.027.77.77 0 0 0-.081-.009c-.096 0-.144.042-.144.126v1.206c0 .072.036.114.108.126.3.084.75.126 1.35.126zM54.89 12c.084 0 .126-.042.126-.126V4.008c0-.084-.042-.126-.126-.126h-1.332c-.084 0-.126.042-.126.126v7.866c0 .084.042.126.126.126h1.332zm-3.6 0c.024 0 .06-.012.108-.036a.122.122 0 0 0 .036-.09V6.636c0-1.02-.264-1.758-.792-2.214-.528-.456-1.302-.684-2.322-.684-.528 0-1.062.042-1.602.126-.624.096-1.14.21-1.548.342-.072.012-.108.06-.108.144v7.524c0 .084.042.126.126.126h6.102zm-1.44-1.386h-3.204V5.322c.348-.084.864-.126 1.548-.126.516 0 .924.084 1.224.252.288.18.432.54.432 1.08v4.086zM39.95 12c.084 0 .126-.042.126-.126V10.74c0-.084-.042-.126-.126-.126h-.882V6.42c0-.96-.27-1.65-.81-2.07-.552-.408-1.248-.612-2.088-.612-.828 0-1.596.132-2.304.396-.072.012-.108.06-.108.144v1.224c0 .036.018.066.054.09.024.024.054.024.09 0 .42-.12.786-.21 1.098-.27.24-.048.534-.072.882-.072.528 0 .93.09 1.206.27.276.18.414.522.414 1.026v4.068h-3.798c-.084 0-.126.042-.126.126v1.134c0 .084.042.126.126.126h6.246zm-7.902-3.294c.024 0 .048-.012.072-.036.024-.024.036-.042.036-.054V7.518c0-.084-.042-.126-.126-.126h-5.112c-.084 0-.126.042-.126.126v1.098c0 .012.012.03.036.054.024.024.048.036.072.036h5.148z"/>
  </defs>
  <g fill="none" fill-rule="evenodd" class="page_1">
    <g class="button_desktop">
      <rect width="191" height="54" fill="url(#linearGradient-1)" fill-rule="nonzero" class="rectangle" rx="12"/>
      <g class="group" transform="translate(33 20)">
        <g fill-rule="nonzero" class="group_3">
          <g class="group">
            <path fill="#D32733" d="M13.829 2.226c0 .58-.477 1.05-1.066 1.05-.588 0-1.065-.47-1.065-1.05 0-.58.477-1.05 1.065-1.05.589 0 1.066.47 1.066 1.05" class="path"/>
            <path fill="#FFF" d="M3.829 5.576v2.75c0 1.517 1.25 2.751 2.787 2.751s2.788-1.234 2.788-2.75c0-1.517-1.25-2.751-2.788-2.751H3.829zm2.787 7.382c-2.588 0-4.693-2.078-4.693-4.631V5.576h-.97A.946.946 0 0 1 0 4.636c0-.52.427-.94.953-.94h.97V.961c0-.52.427-.94.953-.94s.953.42.953.94v2.733h2.787c2.588 0 4.693 2.078 4.693 4.631 0 2.554-2.105 4.632-4.693 4.632v.001z" class="shape"/>
            <path fill="#FFF" d="M12.74 12.98a.945.945 0 0 1-.948-.942v-7.4c0-.52.424-.942.948-.942.523 0 .947.422.947.942v7.4c0 .52-.424.943-.947.943m7.39-1.905c-1.53-.038-2.73-1.246-2.73-2.75v-2.75h2.4a.95.95 0 0 0 .957-.94c0-.52-.429-.94-.957-.94h-2.4V.961c0-.52-.429-.94-.957-.94a.95.95 0 0 0-.958.94v2.733h-.408a.949.949 0 0 0-.957.94c0 .52.429.94.957.94h.408v2.751c0 1.217.477 2.365 1.342 3.236a4.73 4.73 0 0 0 3.252 1.394h.025a.95.95 0 0 0 .957-.916.948.948 0 0 0-.933-.964" class="path"/>
            <path fill="#D32733" d="M21.897 13.94l3.947-2.174a.247.247 0 0 0-.036-.449L21.56 9.79a.167.167 0 0 0-.2.071.166.166 0 0 0-.007.151l.612 1.406c.045.102.144.17.255.174l1.745.075c.01 0 .02.01.02.02s-.006.02-.017.022l-1.71.348a.29.29 0 0 0-.224.212l-.378 1.484a.166.166 0 0 0 .031.147c.052.063.14.077.209.04" class="path"/>
          </g>
          <g class="מעברלתשלוםב_">
            <use fill="#000" xlink:href="#path-2"/>
            <use fill="#FFF" xlink:href="#path-2"/>
          </g>
        </g>
      </g>
    </g>
  </g>
</svg>
